# xmcd
#
# Track frame offsets: 
#        150
#        13025
#        23284
#        35639
#        45915
#        63167
#        81845
#        95335
#        111137
#        123098
#        139069
#
# Disc length: 2040 seconds
#
# Revision: 0
# Processed by: cddbd v1.5.2PL0 Copyright (c) Steve Scherf et al.
# Submitted via: ExactAudioCopy v0.99pb3
#
DISCID=7a07f60b
DTITLE=Roy Drusky - All My Hard Times
DYEAR=1900
DGENRE=Country
TTITLE0=All My Hard Times
TTITLE1=Lock, Stock, and Teardrops
TTITLE2=For The Good Times
TTITLE3=Silver Wings
TTITLE4=At Times Everybody's Blind
TTITLE5=Afraid of Losing You Again
TTITLE6=You're Shaking the Hand
TTITLE7=Everything a Man Could Ever Need
TTITLE8=I'm Letting You Go
TTITLE9=Please Don't Let Me Love You Anymore
TTITLE10=You're My World
EXTD=
EXTT0=
EXTT1=
EXTT2=
EXTT3=
EXTT4=
EXTT5=
EXTT6=
EXTT7=
EXTT8=
EXTT9=
EXTT10=
PLAYORDER=
